<svg width="1280" height="832" viewBox="0 0 1280 832" fill="none" xmlns="http://www.w3.org/2000/svg">
<path d="M1144 684C1191 527 1251 491 1279 478.5L1286 946H572.44C553.968 939.887 517.367 920.549 518.738 892.098C519.309 852.089 522.238 843.5 529.5 813.5C539.028 774.14 580.5 743 584.5 690.5C584.5 631 544 624 496.5 641C444.5 664 374.862 755.5 316.5 755.5C275.362 757.38 132.536 767.624 159.387 477.555C165.481 434.952 184 349 118.5 337C44 337 37.7809 441.604 15.5 470.5C-6.78088 499.396 -46.2827 519.231 -62.8506 527.011C-77.476 548.349 -144.738 564.798 -176.54 570.354V359.193C-153.688 324.37 -90.7302 244.054 -21.7166 201.377C47.2971 158.7 113.302 188.411 137.677 208.601C154.245 222.308 190.809 258.169 204.52 291.954C221.659 334.187 280.504 662.599 441.612 557.018C570.498 472.553 454.561 367.343 380.482 325.296C316.496 312.145 196.244 216.274 268 2H536.5H745L1146.91 -0.499451C1127.38 -0.257507 1064.17 77.046 1051.77 106.354C1043.77 125.248 1020.34 238.053 1009.49 283.619C998.634 329.186 921.995 364.793 898 302C887.5 293 889.001 246.116 893 225C897.21 202.772 903.171 166.022 902.083 159.145C872.375 90.2395 811.817 140.251 766.684 118.024C730.578 100.242 737.573 27.9321 745 2H536.5C519.133 37.5817 484.641 136.707 495.885 201.377C502.026 236.694 521.669 258.019 559.3 283.063C570.155 290.287 594.881 301.09 610.718 309.737C692.414 354.34 715.838 403.092 723.265 439.768C724.407 451.437 726.693 480.889 714.695 552.017C710.58 591.256 697.212 630.794 695.842 668.711C694.054 718.221 706.289 763.795 720.98 790.407C766.684 873.205 771.747 897.655 922 892.098C1072.25 886.541 1095 785.5 1144 684Z" fill="url(#paint0_linear_429_2667)" fill-opacity="0.5"/>
<path d="M-176.54 71.3461C-135.863 73.1243 -70.4679 36.5229 -42.8549 18H-176.54C-193.489 35.0411 -217.217 69.5679 -176.54 71.3461Z" fill="url(#paint1_linear_429_2667)" fill-opacity="0.5"/>
<path d="M1178.56 625.641C1197.08 566.354 1253.91 502.491 1280 477.97V903H591.427C573.602 897.006 538.282 878.043 539.605 850.144C540.156 810.91 572.132 766.772 573.234 762.413C574.337 758.054 615.133 707.922 607.966 647.982C595.617 595.235 561.5 595 514.5 610C463.179 637.09 382.667 707.677 345.547 713.371C273 724.5 166.926 728.084 192.838 443.641C198.718 401.864 196.917 316.241 142.669 307.958C65.4873 306.323 59.9744 336.293 38.4736 364.629C16.9729 392.964 -5.63037 484.509 -21.618 492.138C-35.7313 513.062 -100.638 529.192 -131.327 534.641V327.575C-109.275 293.427 -48.5214 214.669 18.0756 172.82C84.6725 130.971 148.366 160.106 171.888 179.904C187.876 193.345 223.159 228.51 236.39 261.641C252.929 303.054 309.713 625.096 465.179 521.563C589.553 438.737 477.676 335.567 406.19 294.335C344.445 281.439 238.265 203.117 307.508 -7H554.49H756.817H1130.6C1111.85 -7 1061.69 61.1138 1053.97 79.6407C1046.25 98.1676 1023.65 208.784 1013.17 253.467C1002.7 298.15 927.72 325.395 904.565 263.82C901.257 251.287 906.77 209.329 910.629 188.623C914.692 166.826 910.576 138.151 909.527 131.407C880.859 63.8383 822.421 112.88 778.869 91.0838C744.027 73.6467 749.65 18.4291 756.817 -7H554.49C537.731 27.8915 506.702 109.405 517.553 172.82C523.479 207.452 542.433 228.364 578.747 252.922C589.222 260.006 613.082 270.599 628.364 279.078C707.2 322.816 729.803 370.623 736.97 406.587C738.073 418.03 740.278 446.91 728.701 516.659C724.729 555.137 711.829 593.907 710.508 631.09C708.782 679.639 720.589 724.329 734.765 750.425C778.869 831.617 816.908 894.826 961.9 889.377C1106.89 883.928 1155.41 699.748 1178.56 625.641Z" fill="url(#paint2_linear_429_2667)"/>
<path d="M-131.327 45.3113C-92.0741 47.0551 -28.9686 11.1637 -2.32251 -7H-131.327C-147.682 9.71057 -170.579 43.5676 -131.327 45.3113Z" fill="url(#paint3_linear_429_2667)"/>
<defs>
<linearGradient id="paint0_linear_429_2667" x1="645.056" y1="17.9999" x2="653.226" y2="850.003" gradientUnits="userSpaceOnUse">
<stop stop-color="#90E0EF"/>
<stop offset="1" stop-color="#48CAE4"/>
</linearGradient>
<linearGradient id="paint1_linear_429_2667" x1="645.056" y1="17.9999" x2="653.226" y2="850.003" gradientUnits="userSpaceOnUse">
<stop stop-color="#90E0EF"/>
<stop offset="1" stop-color="#48CAE4"/>
</linearGradient>
<linearGradient id="paint2_linear_429_2667" x1="661.5" y1="-7.00005" x2="664.5" y2="825" gradientUnits="userSpaceOnUse">
<stop stop-color="#CAF0F8"/>
<stop offset="1" stop-color="#ADE8F4"/>
</linearGradient>
<linearGradient id="paint3_linear_429_2667" x1="661.5" y1="-7.00005" x2="664.5" y2="825" gradientUnits="userSpaceOnUse">
<stop stop-color="#CAF0F8"/>
<stop offset="1" stop-color="#ADE8F4"/>
</linearGradient>
</defs>
</svg>
