<svg width="149" height="51" viewBox="0 0 149 51" fill="none" xmlns="http://www.w3.org/2000/svg">
<path d="M36 21.5C33.314 23.7384 31.4328 26.2406 28.5 28.0004C25.942 27.3609 25.631 26.4455 23.1026 25.7376C18.9636 24.5786 13.7823 23.2957 9.49998 23.0004C6.55889 22.7975 2.49996 24.0003 2.49996 24.0003C1.49997 25.2631 3.5 33.5004 3.5 33.5004C3.5 34.0004 3.96216 36.1337 4.5 38.0004C4.93305 39.5033 5.83367 41.5937 6.5 43.0004C6.86617 43.7734 7.5369 45.2826 8.02782 45.8826C9.34677 47.4946 12.1102 49.7443 14.5 48.0004C19.3284 44.477 23.1026 39.0004 25.3661 35.0631C26.5679 32.9726 29 30.0004 29 30.0004L30.5 30.5004C30.5 30.5004 36.2188 32.2074 37.5001 32.5003C39.6797 32.9985 48 33.5004 48 33.5004H77C77 33.5004 93.4823 32.2026 95 32.0003C102.5 31.0003 109 30.0003 109 30.0003C117.5 29.0003 133.031 22.0044 135.5 21.0003C138.53 19.7679 145 16.5 146 13.8769C147 11 144 10 144 10L139.5 8C139.5 8 129.091 5.5538 127 5.0002C119.053 2.89656 111.702 1.86779 103.5 2.00009C93.2194 2.16591 85.9091 2.57358 76 5.00029C68.3698 6.86892 61 9.50059 54.5 12.0003C48 14.5 39 19 36 21.5Z" stroke="#FCDAD6" stroke-width="3" stroke-linecap="round"/>
<path d="M120 10.8149C120.749 10.8149 120.625 10.6536 120.407 10" stroke="#FCDAD6" stroke-width="3" stroke-linecap="round"/>
<path d="M117.957 16.0051C116.971 16.0051 115.719 15.8999 114.956 16.6457C114.098 17.4846 113.607 18.7248 114.4 19.7815C115.157 20.7908 117.153 21.3132 118.345 20.9954C119.769 20.6156 120.469 18.7616 119.778 17.5561C119.532 17.1281 118.852 15.8016 118.193 16.4603C117.693 16.9606 116.591 18.2609 116.591 18.9723C116.591 20.5559 118.261 20.2556 117.805 18.888" stroke="#F87729" stroke-width="3" stroke-linecap="round"/>
</svg>
