<svg width="164" height="189" viewBox="0 0 164 189" fill="none" xmlns="http://www.w3.org/2000/svg">
<path d="M52.977 76.0726C54.7372 61.7307 55.0244 47.2059 57.8761 33.0105C58.9392 27.7188 59.665 22.282 61.2427 17.1072C61.751 15.4401 62.6609 13.9462 63.1396 12.2709C63.6068 10.6355 63.8888 8.9664 64.4962 7.37174C65.1905 5.54935 66.4533 0.691641 69.0436 1.01544C71.0814 1.27015 72.8421 4.49409 73.7795 5.97737C76.4062 10.1339 78.3364 14.3175 79.6584 19.0668C82.2998 28.5561 84.9323 38.0181 86.2157 47.8084C87.0614 54.2595 87.6469 60.7907 88.1377 67.2793C88.2878 69.2646 88.4769 71.2784 88.4769 73.2713C88.4769 73.5697 88.6352 74.5096 88.3261 74.6782C88.0285 74.8406 87.4004 74.7159 87.0699 74.7159C85.143 74.7159 83.2674 75.1429 81.3668 75.4194C77.8426 75.932 74.1837 76.3173 70.6264 76.5374C66.1504 76.8143 61.7399 77.4293 57.248 77.4293C55.3855 77.4293 54.097 77.5729 52.5248 76.5248" stroke="white" stroke-width="0.475824" stroke-linecap="round"/>
<path d="M65.8486 2.75439C56.0871 13.651 46.8644 25.4915 42.3697 39.5782C42.1034 40.4131 40.4408 44.4891 41.2994 45.6379C42.0917 46.698 44.8429 46.7883 45.9952 46.8377C48.5284 46.9463 51.0225 46.6458 53.5049 46.1989C53.8992 46.128 54.2656 46.104 54.6616 46.104" stroke="white" stroke-width="0.475824" stroke-linecap="round"/>
<path d="M70.9758 1.0459C82.4031 8.46439 94.1024 15.6997 104.623 24.4039C106.53 25.9816 109.396 28.305 109.198 31.18C109.067 33.0816 107.323 34.6512 105.745 35.4701C103.369 36.7036 100.809 37.5512 98.434 38.8106C94.8628 40.7048 91.2503 42.5626 87.7045 44.4991C87.1839 44.7834 86.9171 44.8616 86.3579 44.8616" stroke="white" stroke-width="0.475824" stroke-linecap="round"/>
<path d="M57.9521 81.1357C50.2496 87.3156 46.3704 96.3065 42.7292 105.287C39.7653 112.597 37.1755 119.915 33.6609 126.991C30.6088 133.137 26.2657 138.854 21.7724 144.022C19.2066 146.972 16.3514 149.443 13.2651 151.844C10.3997 154.072 7.2639 155.789 4.35258 157.889C3.78292 158.3 -0.492935 161.41 1.54795 161.691C5.85436 162.284 10.4357 161.317 14.4492 159.821C21.1355 157.329 26.3819 153.54 31.1212 148.307C38.1082 140.592 43.1038 130.596 47.2945 121.148C49.1112 117.053 49.9776 112.741 51.0496 108.419C51.5758 106.297 52.31 103.005 54.5087 101.906C55.3295 101.495 55.4175 102.383 55.428 102.95C55.4836 105.956 55.4745 108.983 55.3656 111.987C55.089 119.622 53.4661 127.267 52.3584 134.813C51.5562 140.279 51.5015 145.679 51.5015 151.189C51.5015 155.722 51.4855 160.267 51.7975 164.792C51.875 165.915 52.1767 167.074 52.4052 168.173C53.3338 172.637 53.1309 177.169 53.4024 181.697C53.4846 183.068 53.5944 185.746 54.4619 187.057C55.6591 188.866 57.636 187.738 58.5442 186.449C59.7631 184.719 59.9051 181.809 59.5882 179.75C59.3493 178.197 58.5227 176.671 58.1703 175.122C57.61 172.659 57.3505 170.257 57.3912 167.736C57.4972 161.166 59.6565 154.603 60.4607 148.088C60.9999 143.721 61.3085 139.333 62.0032 134.985C62.9849 128.84 64.2994 122.761 65.1818 116.599C66.0907 110.251 66.245 103.523 68.4383 97.4493C68.8384 96.3415 68.7491 95.5713 69.2641 97.4026C70.9007 103.222 72.2713 109.045 73.0971 115.041C74.8011 127.412 75.395 139.803 76.338 152.233C76.8153 158.524 77.832 164.891 79.8905 170.884C81.1116 174.439 83.176 177.206 86.4347 179.173C88.3372 180.322 87.964 174.407 87.946 173.751C87.8657 170.818 87.4149 167.916 87.1826 164.994C86.724 159.227 86.6532 153.447 86.497 147.668C86.3023 140.464 86.9525 133.153 86.497 125.979C86.1076 119.846 83.0461 114.388 83.1938 108.185C83.2028 107.803 83.4292 107.65 83.8014 107.873C84.5189 108.304 85.033 109.315 85.4686 109.961C86.628 111.68 87.7723 113.396 89.0991 114.994C93.777 120.629 99.4953 125.539 105.755 129.282C111.561 132.753 117.302 135.608 123.845 137.478C129.482 139.088 135.381 140.539 141.187 141.373C145.739 142.027 150.417 142.281 154.992 141.716C158.049 141.338 160.264 139.731 163.126 138.631" stroke="white" stroke-width="0.475824" stroke-linecap="round"/>
<path d="M162.845 138.07C160.807 136.085 159.179 134.679 156.301 134.081C153.044 133.405 149.628 133.648 146.329 133.458C138.954 133.034 132.286 130.651 125.699 127.381C117.363 123.243 110.337 116.663 103.371 110.6C99.7385 107.438 96.7561 104.315 93.7266 100.644C93.2777 100.1 91.1455 98.2704 91.1713 97.4965C91.2292 95.7568 94.0998 96.7013 94.8017 97.1693C97.331 98.8554 99.4641 99.4884 102.577 99.7402C107.045 100.102 111.77 100.17 116.179 99.2883C125.005 97.5232 132.359 88.9602 135.453 80.8557C136.803 77.3209 137.203 73.413 138.164 69.7618C140.93 59.2519 144.554 49.2524 149.134 39.3784C151.087 35.1669 153.314 31.1767 153.87 26.5082C154.173 23.9621 154.191 21.8202 155.195 19.3876C156.346 16.5975 158.095 14.1961 159.76 11.706C160.781 10.1796 161.935 8.5527 162.596 6.81353C163.009 5.72517 163.127 1.68066 163.127 1.68066" stroke="white" stroke-width="0.475824" stroke-linecap="round"/>
<path d="M163.126 1.48486C155.822 5.62613 152.348 12.5014 148.479 19.6994C146.845 22.74 145.219 25.7121 143.088 28.4404C141.364 30.6478 139.385 32.6361 137.697 34.8755C131.714 42.8145 129.536 53.0585 126.276 62.2829C124.28 67.9286 123.097 73.7562 119.351 78.5264C116.787 81.7915 113.841 85.4913 110.073 87.0912C107.611 88.1363 104.142 88.178 101.508 87.3291C99.3277 86.6267 94.8461 83.7604 93.6566 82.5709C91.0395 80.9055 93.1807 78.5264 75.5752 80.1917C71.3274 80.3744 68.1588 80.7206 63.9175 80.6676C62.2868 80.6472 59.6351 80.6676 57.9697 81.1434" stroke="white" stroke-width="0.475824" stroke-linecap="round"/>
<path d="M82.1773 62.1182C75.0912 62.1182 81.4753 68.5392 83.4436 66.1985C84.3386 65.1343 83.1224 64.2373 82.318 63.7011C81.3409 63.0497 80.1969 63.2433 79.7502 64.4397C79.0889 66.2112 81.5631 66.2756 82.6962 65.9435C84.5853 65.3898 82.2404 61.7544 80.9638 63.2438C80.6859 63.568 80.2879 64.9918 80.955 65.1696C81.7382 65.3785 82.1259 63.7817 82.1685 63.2702C82.2218 62.6314 83.2507 62.8659 83.6899 63.1031C84.7524 63.6768 83.4897 65.2825 83.1271 65.9171" stroke="#F87729" stroke-width="1.9033" stroke-linecap="round"/>
<path d="M60.9666 63.2261C59.8915 64.6147 59.7377 66.0422 61.5294 66.9547C62.5576 67.4784 65.748 67.5621 65.2228 65.5301C64.9477 64.4653 63.4547 63.542 62.4264 63.4195C60.9198 63.2402 60.1972 65.0461 61.1425 66.1632C61.9523 67.1203 64.3295 66.9437 64.3083 65.3718C64.2953 64.4105 62.0373 63.6715 61.547 64.5803C60.7999 65.9653 62.6819 66.5643 63.3937 65.3542C63.6387 64.9376 63.287 64.4972 62.8133 64.6507C62.5605 64.7326 61.9413 65.6796 62.4967 65.6796C63.1941 65.6796 62.5721 62.8509 60.9226 64.1494C60.2116 64.7092 59.9384 66.1534 60.5093 66.9283C61.1098 67.7432 64.7158 66.006 63.7982 64.7826C61.0825 61.1617 58.6575 66.6818 60.4477 67.4559C61.0829 67.7306 62.1735 67.5541 62.8661 67.4911C63.585 67.4258 64.0725 66.9566 64.449 66.3919" stroke="#F87729" stroke-width="1.9033" stroke-linecap="round"/>
<path d="M66.9815 56.578C66.3472 56.6969 66.873 58.0124 67.4564 57.8179C68.2784 57.5439 68.0103 56.4683 67.3685 56.1734C66.8788 55.9485 66.3151 56.9478 66.9815 57.1144C67.4159 57.223 67.4826 56.8547 67.2981 56.578" stroke="black" stroke-width="0.475824" stroke-linecap="round"/>
<path d="M75.5291 56.2616C75.5291 56.5532 75.5377 57.5923 76.0919 57.0706C77.0542 56.165 75.1453 55.5112 74.9399 56.3671C74.454 58.3919 77.9764 56.2616 75.8457 56.2616" stroke="black" stroke-width="0.475824" stroke-linecap="round"/>
</svg>
