<svg width="95" height="95" viewBox="0 0 95 95" fill="none" xmlns="http://www.w3.org/2000/svg">
<path d="M52.7017 7.01382L40.3989 37.7455C34.9751 33.2974 21.1114 23.7544 9.04676 21.1664C-3.01791 18.5785 1.10948 24.1318 4.68126 27.2319L31.668 48.2588C28.3608 49.3371 19.4445 54.1625 10.2372 64.8377C1.02997 75.5129 9.57578 73.0598 14.9996 70.4988L40.3989 58.3679C42.3832 66.59 47.7806 84.6515 53.4954 91.1213C59.2103 97.5912 60.1098 91.6605 59.8452 87.8864L53.4954 54.3243C58.2578 55.133 70.9575 56.2652 83.6571 54.3243C102.389 50.4424 91.4621 45.6978 83.6571 43.8108L52.7017 42.5977C54.686 38.4193 59.5278 26.1807 63.0202 10.6531C63.3377 -4.87447 56.2735 1.7571 52.7017 7.01382Z" stroke="white"/>
</svg>
