<svg width="139" height="85" viewBox="0 0 139 85" fill="none" xmlns="http://www.w3.org/2000/svg">
<path d="M3.39502 48.2139C12.2157 48.2139 20.4737 47.2451 29.2944 47.2451C33.0597 47.2451 43.4244 49.5824 43.4244 49.5824L51.6356 52.6616C53.9697 53.5455 57.7063 56.0385 60.7491 57.7773C60.7491 57.7773 65.136 60.5002 67.0315 62.5833C69.3438 65.1243 70.7512 66.3145 73.532 68.3995C75.5333 69.9 78.7021 72.681 80.7168 74.216" stroke="white" stroke-width="0.684263" stroke-linecap="round"/>
<path d="M20.4928 23.5806C20.0209 28.7816 16.6114 33.9265 18.8761 39.3105C20.1535 42.3474 22.451 44.3461 24.2651 46.8455" stroke="white" stroke-width="0.684263" stroke-linecap="round"/>
<path d="M65.9559 26.3179C65.9559 32.5095 66.589 38.4476 63.3085 44.0914C61.2383 47.6529 58.3193 50.8514 56.4253 54.3727" stroke="white" stroke-width="0.684263" stroke-linecap="round"/>
<path d="M95.4284 49.5825C92.2818 54.0087 87.2392 56.8455 83.853 61.1456C81.4689 64.1731 79.8593 68.4906 79.0061 72.1632" stroke="white" stroke-width="0.684263" stroke-linecap="round"/>
<path d="M11.8778 1C11.3628 4.5718 10.7621 8.12723 11.9671 11.6195C12.7102 13.7732 13.7813 15.9425 15.0217 17.8658C16.1861 19.6714 16.7821 22.4611 18.7908 23.5807" stroke="white" stroke-width="0.684263" stroke-linecap="round"/>
<path d="M3.05273 11.9482C4.88642 13.475 5.86448 15.5185 7.33326 17.3041C10.0658 20.626 14.1527 22.5264 18.1065 24.265" stroke="white" stroke-width="0.684263" stroke-linecap="round"/>
<path d="M34.529 7.84277C32.2093 10.8278 29.822 13.4762 27.0781 16.1111C25.3561 17.7647 23.6957 19.4989 22.013 21.1894C21.3987 21.8065 20.9452 22.5274 20.1594 22.8966" stroke="white" stroke-width="0.684263" stroke-linecap="round"/>
<path d="M21.5278 23.5454C23.2282 23.5454 24.8028 24.1327 26.4396 24.5452C28.4365 25.0484 30.7808 25.0631 32.8086 24.6933C34.9142 24.3093 37.0508 23.7279 39.1057 23.1196C40.2332 22.7858 41.5514 22.2124 42.74 22.2124" stroke="white" stroke-width="0.684263" stroke-linecap="round"/>
<path d="M53.0039 5.79004C53.5046 9.15723 54.1506 12.3194 55.8476 15.3386C56.9439 17.2892 58.4696 19.2507 60.0243 20.8594C61.5347 22.4223 63.1661 24.9322 65.3206 25.6337" stroke="white" stroke-width="0.684263" stroke-linecap="round"/>
<path d="M84.48 3.73682C82.3914 6.6701 80.268 9.56226 78.2483 12.5359C76.0284 15.8042 73.5871 18.9651 70.6786 21.6883C69.4592 22.83 68.4541 24.2014 67.1962 25.2927C66.8021 25.6346 66.4681 26.0942 66.0049 26.3175" stroke="white" stroke-width="0.684263" stroke-linecap="round"/>
<path d="M66.0049 25.8184C68.3184 26.6214 70.129 27.3169 72.6383 26.853C74.7208 26.468 76.8191 25.8167 78.6456 24.8007C81.2092 23.3746 83.7731 21.9886 86.2228 20.3906C87.845 19.3324 89.5106 18.175 91.3226 17.4224" stroke="white" stroke-width="0.684263" stroke-linecap="round"/>
<path d="M100.218 31.792C97.5835 33.6088 95.5695 35.1975 94.2905 38.1417C93.2262 40.5916 92.8112 43.6156 92.7037 46.2311C92.663 47.22 92.6746 48.5167 93.488 49.2494C93.8092 49.5388 94.0726 49.9293 94.3087 50.2671" stroke="white" stroke-width="0.684263" stroke-linecap="round"/>
<path d="M95.4282 49.5827C97.8293 49.0202 100.036 48.1295 102.107 46.859C104.782 45.2181 106.893 42.7358 109.186 40.6764C111.202 38.8666 113.501 37.1821 115.956 35.8975" stroke="white" stroke-width="0.684263" stroke-linecap="round"/>
<path d="M96.1125 50.5791C98.9535 52.2274 101.199 52.6048 104.431 52.129C105.6 51.957 106.716 51.7087 107.893 51.5875C113.388 51.0212 118.78 50.1795 124.167 48.8984" stroke="white" stroke-width="0.684263" stroke-linecap="round"/>
<path d="M1 12.6323C2.26782 12.6323 3.21563 12.8343 4.42132 13.3166" stroke="white" stroke-width="0.684263" stroke-linecap="round"/>
<path d="M2.36841 14.6851C3.89599 14.9981 5.10555 15.3542 6.47399 16.0536" stroke="white" stroke-width="0.684263" stroke-linecap="round"/>
<path d="M5.10547 19.4751C6.16668 19.5709 7.33818 19.6682 8.37765 19.9028C8.68133 19.9713 9.01379 19.9457 9.21105 20.1594" stroke="white" stroke-width="0.684263" stroke-linecap="round"/>
<path d="M8.52686 23.5807C10.8271 23.5807 13.0932 22.8965 15.3695 22.8965" stroke="white" stroke-width="0.684263" stroke-linecap="round"/>
<path d="M13.3167 25.6324C14.2568 25.6136 15.4609 25.7227 16.3578 25.3503C16.9585 25.1009 17.5297 24.5944 18.1065 24.2651" stroke="white" stroke-width="0.684263" stroke-linecap="round"/>
<path d="M8.52686 1.68408C9.11677 2.5067 10.7817 4.88983 12.0343 4.33953C12.7349 4.03179 13.4598 3.50219 14.001 2.96113" stroke="white" stroke-width="0.684263" stroke-linecap="round"/>
<path d="M9.89551 6.47412C10.5522 6.78363 10.9028 7.33194 11.3884 7.7955C11.7293 8.12088 14.7787 6.66214 15.3696 6.47412" stroke="white" stroke-width="0.684263" stroke-linecap="round"/>
<path d="M9.89551 10.9556C11.1486 11.233 12.1644 13.0248 13.5274 12.5542C14.3725 12.2624 15.653 10.6644 16.0539 9.89551" stroke="white" stroke-width="0.684263" stroke-linecap="round"/>
<path d="M10.5796 14.7681C11.6941 15.0894 13.4915 16.5297 14.7528 15.8933C15.3912 15.5712 16.2868 15.1374 16.8478 14.6999C17.108 14.497 17.1849 14.1207 17.4222 14.001" stroke="white" stroke-width="0.684263" stroke-linecap="round"/>
<path d="M12.6326 18.9036C13.636 19.0892 14.666 19.3882 15.6923 19.4632C17.5937 19.6022 18.2548 18.5055 19.4752 17.4224" stroke="white" stroke-width="0.684263" stroke-linecap="round"/>
<path d="M31.9495 7.1582C31.9495 7.83296 31.5204 9.9514 32.0775 10.5139C32.4127 10.8524 35.2212 9.78122 35.8973 9.57431" stroke="white" stroke-width="0.684263" stroke-linecap="round"/>
<path d="M29.739 9.21094C29.739 10.5114 29.7357 11.8018 29.8969 13.0947C29.9369 13.4147 33.3066 13.2943 33.8446 13.2943" stroke="white" stroke-width="0.684263" stroke-linecap="round"/>
<path d="M26.3491 13.3169C26.3491 14.0553 26.3491 14.7938 26.3491 15.5322C26.3491 16.3267 26.0688 16.8683 27.1816 16.711C29.1962 16.4261 31.2237 15.9712 33.1603 15.4236" stroke="white" stroke-width="0.684263" stroke-linecap="round"/>
<path d="M23.6173 16.0537C23.6173 17.2728 23.5294 18.5225 23.6256 19.7369C23.6874 20.5163 27.0279 19.7165 27.6861 20.1593" stroke="white" stroke-width="0.684263" stroke-linecap="round"/>
<path d="M27.6863 25.6333C28.7565 26.349 29.2977 27.7745 30.4233 28.3704" stroke="white" stroke-width="0.684263" stroke-linecap="round"/>
<path d="M32.4761 24.9492C32.9206 25.3938 33.2381 26.1324 33.8446 26.3177" stroke="white" stroke-width="0.684263" stroke-linecap="round"/>
<path d="M35.8975 24.2651C36.5198 24.8874 37.205 25.9143 37.9503 26.3179" stroke="white" stroke-width="0.684263" stroke-linecap="round"/>
<path d="M38.6345 23.5806C39.3899 23.7857 40.0919 24.5246 40.6873 24.9491" stroke="white" stroke-width="0.684263" stroke-linecap="round"/>
<path d="M40.6873 22.8965C41.4717 22.9394 42.8425 23.0449 43.4865 23.6785C43.7173 23.9056 43.8263 24.1467 44.1086 24.265" stroke="white" stroke-width="0.684263" stroke-linecap="round"/>
<path d="M50.2668 6.47412C51.134 6.74156 53.1108 9.24732 53.9036 8.32335C54.2716 7.89443 54.2542 7.29071 54.7019 6.95421C54.8641 6.83224 54.9737 6.64053 55.0567 6.47412" stroke="white" stroke-width="0.684263" stroke-linecap="round"/>
<path d="M50.2668 11.9729C50.8667 12.0981 53.3959 13.7933 53.7737 13.1855C54.3677 12.23 54.6817 11.2187 55.741 10.5796" stroke="white" stroke-width="0.684263" stroke-linecap="round"/>
<path d="M51.6355 15.7078C52.5338 15.8728 53.3746 16.122 54.2185 16.4672C54.8604 16.7297 55.1749 16.9853 55.5734 16.2868C56.3324 14.9564 57.369 13.7125 58.4781 12.6323" stroke="white" stroke-width="0.684263" stroke-linecap="round"/>
<path d="M53.0039 19.1922C54.4719 19.2001 55.8785 19.1789 57.2806 19.4712C57.6083 19.5396 58.2194 18.6677 58.2879 18.4163C58.516 17.5795 58.7518 16.8822 59.1623 16.0537" stroke="white" stroke-width="0.684263" stroke-linecap="round"/>
<path d="M55.741 22.6203C56.9201 22.6414 58.5132 23.1129 59.6755 22.775C60.6535 22.4907 60.7952 19.6455 61.2151 18.791" stroke="white" stroke-width="0.684263" stroke-linecap="round"/>
<path d="M59.1624 25.4818C59.8921 25.4818 61.8113 25.8444 62.3911 25.448C63.0524 24.9957 63.3405 23.4985 63.5797 22.8289C63.7357 22.392 63.8735 21.9778 63.9522 21.5278" stroke="white" stroke-width="0.684263" stroke-linecap="round"/>
<path d="M69.4263 16.0537C69.4948 17.2165 69.8292 18.3199 70.1105 19.4451C70.391 20.567 70.9866 20.4363 72.1063 20.6247C73.6658 20.887 75.5418 20.8435 76.9532 21.5278" stroke="white" stroke-width="0.684263" stroke-linecap="round"/>
<path d="M72.1633 14.001C72.3415 14.9604 72.7859 15.9103 73.1087 16.8272C73.3218 17.4323 73.3499 17.9412 73.9996 18.1302C75.8093 18.6565 77.8231 18.673 79.6902 18.7908" stroke="white" stroke-width="0.684263" stroke-linecap="round"/>
<path d="M75.7283 9.89551C75.7283 10.9462 75.1124 14.4289 76.4318 15.0629C77.5635 15.6067 79.3606 15.2617 80.5823 15.2617C80.9693 15.2617 81.3562 15.2617 81.7431 15.2617" stroke="white" stroke-width="0.684263" stroke-linecap="round"/>
<path d="M79.0239 7.84277C79.0239 8.88121 78.952 9.94296 79.0969 10.9752C79.1307 11.2154 79.0752 11.5203 79.3808 11.5378C80.6325 11.6096 81.8707 11.7879 83.1117 11.9484" stroke="white" stroke-width="0.684263" stroke-linecap="round"/>
<path d="M81.0588 3.73682C81.0785 5.05675 81.3543 6.32494 81.5516 7.62951C81.7141 8.70381 84.8228 8.93566 85.8487 9.21092" stroke="white" stroke-width="0.684263" stroke-linecap="round"/>
<path d="M84.2845 3.05273C84.2647 3.69187 84.2314 4.29386 83.9949 4.90553C83.9199 5.09957 83.7131 5.3998 83.832 5.61172C84.3782 6.58557 86.1538 6.46978 87.2172 6.46978" stroke="white" stroke-width="0.684263" stroke-linecap="round"/>
<path d="M87.2173 20.1592C88.1298 20.1592 89.0446 20.1592 89.9543 20.1592" stroke="white" stroke-width="0.684263" stroke-linecap="round"/>
<path d="M81.7432 23.5807C82.9434 23.805 84.1582 24.2588 85.3756 24.265C85.5987 24.2661 87.2922 24.0657 87.2147 23.5132C87.1531 23.0746 85.2696 23.3747 85.0985 23.378C84.1946 23.3956 83.4219 23.2203 82.5649 22.8965" stroke="white" stroke-width="0.684263" stroke-linecap="round"/>
<path d="M78.5354 25.7942C79.2588 25.9758 80.0958 26.2971 80.8729 26.317C81.4329 26.3314 80.5623 26.0614 80.4279 26.0377C79.9975 25.9619 79.5262 25.9252 79.1108 25.812C78.8437 25.7393 78.6027 25.6718 78.3218 25.6333" stroke="white" stroke-width="0.684263" stroke-linecap="round"/>
<path d="M74.3458 27.002C75.2513 27.7001 76.0398 28.352 77.1493 28.3705C77.2355 28.3719 77.9265 28.2707 77.4989 28.1086C76.4526 27.7118 75.2929 27.4825 74.2161 27.23" stroke="white" stroke-width="0.684263" stroke-linecap="round"/>
<path d="M68.173 27.0619C69.1444 27.9283 70.0874 28.8262 71.1737 29.5382C72.2548 30.2468 73.5463 31.0005 74.8462 31.1046C75.1651 31.1302 75.9435 30.9893 75.3933 30.5614C75.014 30.2664 74.5276 30.1336 74.0849 29.9882C73.3395 29.7433 72.5946 29.512 71.8647 29.2183C71.0264 28.8809 70.3041 28.4518 69.555 27.9485C69.3211 27.7913 69.0623 27.718 68.8 27.6285C68.465 27.5143 68.2532 27.3072 68.0579 27.002" stroke="white" stroke-width="0.684263" stroke-linecap="round"/>
<path d="M93.3755 47.5299C94.549 47.2089 95.6655 46.7878 96.7075 46.2113C97.7438 45.6379 99.0399 44.8388 99.4873 43.7846C99.5539 43.6278 99.585 43.4308 99.3246 43.4244C98.8939 43.4139 98.4647 44.0567 98.2362 44.2777C97.3552 45.13 96.2102 46.2098 94.9011 46.5714C94.4901 46.6849 94.0562 46.7852 93.6627 46.9315" stroke="white" stroke-width="0.684263" stroke-linecap="round"/>
<path d="M93.3671 43.4246C94.8571 42.9034 96.4795 42.3594 97.7919 41.5846C98.1155 41.3935 98.3707 40.9589 97.9296 40.722C97.7025 40.6 97.4302 40.8339 97.2881 40.9264C96.6874 41.3172 96.1016 41.718 95.47 42.0782C94.5959 42.5767 93.7018 42.9674 92.6912 43.245" stroke="white" stroke-width="0.684263" stroke-linecap="round"/>
<path d="M94.7441 37.8623C95.5397 37.899 96.3639 37.9838 97.1619 37.9357C97.7985 37.8973 98.4097 37.6821 99.0046 37.5011C99.4283 37.3722 100.592 37.1734 100.873 36.7985C101.079 36.5248 100.139 36.5774 99.7626 36.6038C98.4905 36.6927 97.3794 37.1437 96.1817 37.4616C95.8481 37.5502 95.5051 37.6083 95.1558 37.6083" stroke="white" stroke-width="0.684263" stroke-linecap="round"/>
<path d="M97.4812 34.4287C98.6854 34.5022 99.9141 34.5972 101.118 34.4554C101.651 34.3926 102.184 34.2772 102.695 34.055C102.719 34.0445 103.783 33.4991 103.623 33.3298C103.383 33.0758 102.653 33.1821 102.401 33.183C101.76 33.1853 101.122 33.2441 100.485 33.352C99.7327 33.4797 98.9914 33.7069 98.2437 33.8681" stroke="white" stroke-width="0.684263" stroke-linecap="round"/>
<path d="M97.9944 33.8445C98.0224 32.4485 98.1655 31.0556 98.1655 29.6589C98.1655 29.4673 98.1514 28.9105 98.0768 29.0898C97.9742 29.336 97.9634 29.6307 97.9247 29.8889C97.7597 30.9906 97.5531 32.1143 97.4812 33.2236" stroke="white" stroke-width="0.684263" stroke-linecap="round"/>
<path d="M95.1738 34.9832C95.2705 34.4808 95.359 33.9833 95.4081 33.4677C95.4149 33.396 95.4812 32.995 95.33 33.2368C94.7993 34.0852 94.7795 35.5203 94.7441 36.5815" stroke="white" stroke-width="0.684263" stroke-linecap="round"/>
<path d="M92.6913 40.9541C92.603 40.4629 92.4972 39.9744 92.393 39.4869C92.2016 38.5907 92.0739 37.5882 91.7374 36.7336C91.6904 36.6142 91.5752 36.484 91.5095 36.689C91.2475 37.5065 91.3364 38.6269 91.3407 39.4631C91.3457 40.4462 91.3901 41.4381 91.5601 42.4065C91.6504 42.9207 91.783 43.4875 92.0948 43.9094C92.1961 44.0466 92.2807 44.1084 92.438 44.1084" stroke="white" stroke-width="0.684263" stroke-linecap="round"/>
<path d="M92.4111 46.8737C91.5932 45.7895 90.885 44.6429 90.0769 43.5543C89.9188 43.3413 89.9418 43.4087 89.9898 43.6217C90.1722 44.4308 90.4828 45.2224 90.8238 45.9862C91.1251 46.6609 91.4621 47.3045 91.826 47.952C91.9609 48.1922 92.1671 48.6266 92.3986 48.845C92.4743 48.9164 92.592 48.8956 92.6912 48.8956" stroke="white" stroke-width="0.684263" stroke-linecap="round"/>
<path d="M102.955 45.4773C103.628 44.7172 104.367 43.9532 104.869 43.1233C105.033 42.8523 105.007 42.5052 105.007 42.9626C105.007 43.4926 104.936 44.0181 104.936 44.5472" stroke="white" stroke-width="0.684263" stroke-linecap="round"/>
<path d="M100.218 48.9281C100.901 49.0483 101.549 49.2209 102.203 49.3737C102.584 49.4627 103.061 49.596 103.504 49.5816C103.563 49.5797 103.711 49.5683 103.599 49.5156C103.218 49.3361 102.582 49.223 102.112 49.1229C101.705 49.0363 101.247 48.9568 100.828 48.8984" stroke="white" stroke-width="0.684263" stroke-linecap="round"/>
<path d="M103.639 47.5211C104.827 47.5211 106.015 47.5211 107.203 47.5211C107.221 47.5211 107.964 47.564 107.681 47.4575C106.773 47.1162 105.847 46.8606 104.935 46.5349C104.662 46.4371 104.366 46.3538 104.117 46.1611" stroke="white" stroke-width="0.684263" stroke-linecap="round"/>
<path d="M107.067 44.4004C108.524 44.562 109.986 44.6649 111.451 44.7318C111.584 44.7378 111.821 44.8331 111.85 44.7065C111.897 44.5016 109.996 44.0146 109.836 43.9585C109.174 43.7259 108.914 43.4883 108.773 42.8348C108.703 42.5135 108.409 43.1085 108.361 43.1726C107.905 43.7828 107.387 44.4647 106.684 44.8201C106.331 44.9989 105.949 45.1061 105.601 45.2967C105.15 45.5443 104.74 45.863 104.324 46.1616" stroke="white" stroke-width="0.684263" stroke-linecap="round"/>
<path d="M109.114 42.0557C111.266 41.9949 113.403 41.7687 115.445 41.0544C116.085 40.8305 116.481 40.6502 117.025 40.3101C117.14 40.2383 117.423 39.976 117.29 40.0052C114.645 40.5866 111.942 41.141 109.223 41.141" stroke="white" stroke-width="0.684263" stroke-linecap="round"/>
<path d="M110.482 40.6873C111.11 39.8568 111.932 39.1824 112.728 38.5447C113.807 37.6792 115.019 36.9381 116.323 36.5333C117.507 36.1663 118.823 35.8975 120.062 35.8975" stroke="white" stroke-width="0.684263" stroke-linecap="round"/>
<path d="M116.029 31.792C115.629 33.0677 114.692 34.2161 114.607 35.5731C114.588 35.8857 114.5 36.3221 114.959 36.1053C116.06 35.5853 117.068 34.7503 118.048 34.0601C118.537 33.716 118.89 33.3958 119.218 32.9245C119.247 32.8828 119.363 32.7126 119.374 32.8626C119.419 33.5101 119.05 33.9496 118.54 34.3602C117.531 35.173 116.382 35.842 115.311 36.5818" stroke="white" stroke-width="0.684263" stroke-linecap="round"/>
<path d="M111.851 34.5288C111.469 35.8581 111.28 37.1954 111.167 38.6344" stroke="white" stroke-width="0.684263" stroke-linecap="round"/>
<path d="M108.429 38.6343C108.298 39.5634 107.745 40.4318 107.745 41.3713" stroke="white" stroke-width="0.684263" stroke-linecap="round"/>
<path d="M96.7969 51.6353C97.4685 52.6184 98.1276 53.6078 98.8227 54.5807C99.2343 55.1569 99.6377 55.7651 100.296 56.1909C100.347 56.2241 100.751 56.5078 100.856 56.4013C101.119 56.1325 100.191 55.4905 100.034 55.355C98.8998 54.3758 98.0817 53.2719 97.4981 52.0392" stroke="white" stroke-width="0.684263" stroke-linecap="round"/>
<path d="M100.902 52.3198C102.058 53.2414 103.208 54.1675 104.444 54.9944C104.687 55.1572 104.936 55.3122 105.18 55.4749C105.252 55.5232 105.477 55.7338 105.592 55.7409C105.929 55.7614 105.308 54.6143 105.305 54.6106C104.946 54.0055 104.472 53.2928 103.857 52.8819C103.464 52.6192 102.811 52.6876 102.354 52.7006C102.31 52.7019 102.205 52.688 102.225 52.7248C102.298 52.8618 102.847 53.1196 102.928 53.169C103.518 53.5297 104.102 53.8969 104.676 54.2782" stroke="white" stroke-width="0.684263" stroke-linecap="round"/>
<path d="M105.008 52.3198C106.121 53.3266 107.426 54.1691 108.657 55.0293C108.726 55.0778 109.742 55.8299 109.775 55.7324C109.891 55.3938 109.535 54.7183 109.422 54.4616C109.205 53.9686 108.957 53.4651 108.624 53.0359C108.521 52.9026 108.272 52.508 108.121 52.4198C108.008 52.3541 107.893 52.4119 107.781 52.4424C107.326 52.5657 106.886 52.5814 106.414 52.5585C106.318 52.5538 105.518 52.5518 105.387 52.3908C105.256 52.2294 105.798 52.482 105.992 52.5585C106.5 52.7583 107.006 52.9712 107.499 53.2036C107.61 53.2557 107.824 53.3392 107.915 53.4488C107.972 53.5176 107.94 53.6782 107.938 53.7455C107.925 54.0499 107.936 54.3418 107.951 54.6422" stroke="white" stroke-width="0.684263" stroke-linecap="round"/>
<path d="M109.114 51.6353C110.816 52.4001 112.633 53.1522 113.913 54.4916C114.106 54.6933 114.108 54.7164 114.252 54.9083C114.324 55.003 114.412 55.1585 114.478 54.9617C114.643 54.4648 114.63 53.9126 114.383 53.4433C114.125 52.9549 113.689 52.5149 113.245 52.1638C112.94 51.9227 112.58 51.8902 112.191 51.8576C111.966 51.8388 111.764 51.8281 111.54 51.8233C111.293 51.818 111.296 51.8388 111.518 51.9529C112.082 52.242 112.664 52.5015 113.2 52.8347C113.338 52.9209 113.47 53.0164 113.61 53.099" stroke="white" stroke-width="0.684263" stroke-linecap="round"/>
<path d="M113.903 51.7567C115.246 52.1219 116.628 52.4609 117.813 53.1C118.009 53.2056 118.251 53.3715 118.422 53.5122C118.489 53.5664 118.524 53.6466 118.606 53.6859C118.698 53.7307 118.693 53.0535 118.693 53.0488C118.639 52.5295 118.362 52.1182 117.749 51.8892C117.169 51.673 116.524 51.6506 115.895 51.6397C115.764 51.6375 115.529 51.6348 115.379 51.6375C115.368 51.6377 115.313 51.6276 115.302 51.6486C115.282 51.6842 115.328 51.7016 115.362 51.7088C115.498 51.7373 115.638 51.7512 115.775 51.7745C116.384 51.8777 116.979 52.0161 117.582 52.1376" stroke="white" stroke-width="0.684263" stroke-linecap="round"/>
<path d="M118.009 50.6748C118.891 50.8839 119.758 51.1499 120.598 51.4839C121.096 51.6822 121.625 51.9049 122.008 52.2843C122.154 52.4287 122.109 52.0912 122.105 52.0313C122.066 51.4646 121.898 50.9436 121.38 50.6219C121.015 50.3949 120.55 50.2458 120.112 50.2696C119.939 50.279 120.015 50.4646 120.08 50.5578C120.293 50.8597 120.719 51.1278 121.104 51.1278" stroke="white" stroke-width="0.684263" stroke-linecap="round"/>
</svg>
